<svg width="49" height="48" viewBox="0 0 49 48" fill="none" xmlns="http://www.w3.org/2000/svg">
<path d="M24.9788 34V38.76C24.9788 42.5 23.4788 44 19.7188 44H10.2188C6.47879 44 4.97879 42.5 4.97879 38.76V29.26C4.97879 25.5 6.47879 24 10.2188 24H14.9788V28.74C14.9788 32.5 16.4788 34 20.2188 34H24.9788Z" stroke="#00D1FF" stroke-width="3" stroke-linecap="round" stroke-linejoin="round"/>
<path d="M34.9788 24V28.74C34.9788 32.5 33.4788 34 29.7188 34H20.2188C16.4788 34 14.9788 32.5 14.9788 28.74V19.24C14.9788 15.5 16.4788 14 20.2188 14H24.9788V18.74C24.9788 22.5 26.4788 24 30.2188 24H34.9788Z" stroke="#00D1FF" stroke-width="3" stroke-linecap="round" stroke-linejoin="round"/>
<path d="M44.9788 9.24V18.74C44.9788 22.5 43.4788 24 39.7188 24H30.2188C26.4788 24 24.9788 22.5 24.9788 18.74V9.24C24.9788 5.5 26.4788 4 30.2188 4H39.7188C43.4788 4 44.9788 5.5 44.9788 9.24Z" stroke="#00D1FF" stroke-width="3" stroke-linecap="round" stroke-linejoin="round"/>
</svg>
