<svg width="16" height="16" viewBox="0 0 16 16" fill="none" xmlns="http://www.w3.org/2000/svg">
<path d="M4.60001 6.06671L7.80001 4.66671C7.93334 4.60004 8.06668 4.60004 8.26668 4.66671L11.4667 6.06671C11.7333 6.20004 12 5.86671 11.8 5.60004L8.46668 1.53337C8.26668 1.26671 7.86668 1.26671 7.66668 1.53337L4.33334 5.60004C4.06668 5.86671 4.33334 6.20004 4.60001 6.06671Z" fill="#17191C" stroke="#17191C" stroke-miterlimit="10" stroke-linecap="round" stroke-linejoin="round"/>
<path d="M4.60001 9.93331L7.80001 11.3333C7.93334 11.4 8.06668 11.4 8.26668 11.3333L11.4667 9.93331C11.7333 9.79998 12 10.1333 11.8 10.4L8.46668 14.4666C8.26668 14.7333 7.86668 14.7333 7.66668 14.4666L4.33334 10.4C4.06668 10.1333 4.33334 9.79998 4.60001 9.93331Z" fill="#17191C" stroke="#17191C" stroke-miterlimit="10" stroke-linecap="round" stroke-linejoin="round"/>
<path d="M7.99999 6.26672L4.53333 8.00006L7.99999 9.73339L11.4667 8.00006L7.99999 6.26672Z" fill="#17191C" stroke="#17191C" stroke-miterlimit="10" stroke-linecap="round" stroke-linejoin="round"/>
</svg>
