<svg width="49" height="48" viewBox="0 0 49 48" fill="none" xmlns="http://www.w3.org/2000/svg">
<path d="M34.1313 18.24L30.4313 14.54C29.0313 13.14 27.1113 13.22 26.1713 14.7L24.1113 17.96L30.6913 24.54L33.9513 22.48C35.3713 21.6 35.4513 19.54 34.1313 18.24Z" stroke="#C9CAFF" stroke-width="3" stroke-linecap="round" stroke-linejoin="round"/>
<path d="M24.1113 17.9601L19.3313 17.6801C16.6513 17.5201 15.7313 18.3401 15.4313 20.8801L14.2313 31.0201C13.9713 33.1601 15.5113 34.6801 17.6513 34.4401L27.7913 33.2401C30.3313 32.9401 31.2513 32.0201 30.9913 29.3401L30.7113 24.5601" stroke="#C9CAFF" stroke-width="3" stroke-linecap="round" stroke-linejoin="round"/>
<path d="M15.6113 33.0401L19.3113 29.3401" stroke="#C9CAFF" stroke-width="3" stroke-linecap="round" stroke-linejoin="round"/>
<path d="M18.6313 44H30.6313C40.6313 44 44.6313 40 44.6313 30V18C44.6313 8 40.6313 4 30.6313 4H18.6313C8.63135 4 4.63135 8 4.63135 18V30C4.63135 40 8.63135 44 18.6313 44Z" stroke="#C9CAFF" stroke-width="3" stroke-linecap="round" stroke-linejoin="round"/>
</svg>
