<svg width="49" height="48" viewBox="0 0 49 48" fill="none" xmlns="http://www.w3.org/2000/svg">
<path d="M36.4062 27.1C35.5663 27.92 35.0863 29.1 35.2063 30.36C35.3863 32.52 37.3663 34.1 39.5263 34.1H43.3263V36.48C43.3263 40.62 39.9463 44 35.8063 44H15.5863C16.2063 43.48 16.7463 42.84 17.1663 42.12C17.9063 40.92 18.3263 39.5 18.3263 38C18.3263 33.58 14.7463 30 10.3263 30C8.44626 30 6.70626 30.66 5.32626 31.76V23.02C5.32626 18.88 8.70625 15.5 12.8463 15.5H35.8063C39.9463 15.5 43.3263 18.88 43.3263 23.02V25.9H39.2863C38.1663 25.9 37.1463 26.34 36.4062 27.1Z" stroke="#00D1FF" stroke-width="3" stroke-linecap="round" stroke-linejoin="round"/>
<path d="M5.32626 24.8201V15.6802C5.32626 13.3002 6.78626 11.1801 9.00626 10.3401L24.8863 4.34012C27.3663 3.40012 30.0263 5.24018 30.0263 7.90018V15.5002" stroke="#00D1FF" stroke-width="3" stroke-linecap="round" stroke-linejoin="round"/>
<path d="M45.4439 27.9403V32.0604C45.4439 33.1604 44.5639 34.0603 43.4439 34.1003H39.5239C37.3639 34.1003 35.3839 32.5204 35.2039 30.3604C35.0839 29.1004 35.5639 27.9203 36.4039 27.1003C37.1439 26.3403 38.1639 25.9004 39.2839 25.9004H43.4439C44.5639 25.9404 45.4439 26.8403 45.4439 27.9403Z" stroke="#00D1FF" stroke-width="3" stroke-linecap="round" stroke-linejoin="round"/>
<path d="M14.3263 24H28.3263" stroke="#00D1FF" stroke-width="3" stroke-linecap="round" stroke-linejoin="round"/>
<path d="M18.3263 38C18.3263 39.5 17.9063 40.92 17.1663 42.12C16.7463 42.84 16.2063 43.48 15.5863 44C14.1863 45.26 12.3463 46 10.3263 46C7.40626 46 4.86627 44.44 3.48627 42.12C2.74627 40.92 2.32626 39.5 2.32626 38C2.32626 35.48 3.48626 33.22 5.32626 31.76C6.70626 30.66 8.44626 30 10.3263 30C14.7463 30 18.3263 33.58 18.3263 38Z" stroke="#00D1FF" stroke-width="3" stroke-miterlimit="10" stroke-linecap="round" stroke-linejoin="round"/>
<path d="M7.20908 37.999L9.18906 39.979L13.4491 36.0391" stroke="#00D1FF" stroke-width="3" stroke-linecap="round" stroke-linejoin="round"/>
</svg>
