<svg width="49" height="48" viewBox="0 0 49 48" fill="none" xmlns="http://www.w3.org/2000/svg">
<path d="M16.2837 24.3999H30.2837" stroke="#C9CAFF" stroke-width="3" stroke-miterlimit="10" stroke-linecap="round" stroke-linejoin="round"/>
<path d="M16.2837 32.3999H25.0437" stroke="#C9CAFF" stroke-width="3" stroke-miterlimit="10" stroke-linecap="round" stroke-linejoin="round"/>
<path d="M20.2837 12H28.2837C32.2837 12 32.2837 10 32.2837 8C32.2837 4 30.2837 4 28.2837 4H20.2837C18.2837 4 16.2837 4 16.2837 8C16.2837 12 18.2837 12 20.2837 12Z" stroke="#C9CAFF" stroke-width="3" stroke-miterlimit="10" stroke-linecap="round" stroke-linejoin="round"/>
<path d="M32.2837 8.04004C38.9437 8.40004 42.2837 10.86 42.2837 20V32C42.2837 40 40.2837 44 30.2837 44H18.2837C8.28369 44 6.28369 40 6.28369 32V20C6.28369 10.88 9.62369 8.40004 16.2837 8.04004" stroke="#C9CAFF" stroke-width="3" stroke-miterlimit="10" stroke-linecap="round" stroke-linejoin="round"/>
</svg>
