<svg width="49" height="48" viewBox="0 0 49 48" fill="none" xmlns="http://www.w3.org/2000/svg">
<path d="M16.2838 24.3999H30.2838" stroke="#00D1FF" stroke-width="3" stroke-miterlimit="10" stroke-linecap="round" stroke-linejoin="round"/>
<path d="M16.2838 32.3999H25.0438" stroke="#00D1FF" stroke-width="3" stroke-miterlimit="10" stroke-linecap="round" stroke-linejoin="round"/>
<path d="M20.2838 12H28.2838C32.2838 12 32.2838 10 32.2838 8C32.2838 4 30.2838 4 28.2838 4H20.2838C18.2838 4 16.2838 4 16.2838 8C16.2838 12 18.2838 12 20.2838 12Z" stroke="#00D1FF" stroke-width="3" stroke-miterlimit="10" stroke-linecap="round" stroke-linejoin="round"/>
<path d="M32.2838 8.04004C38.9438 8.40004 42.2838 10.86 42.2838 20V32C42.2838 40 40.2838 44 30.2838 44H18.2838C8.28384 44 6.28384 40 6.28384 32V20C6.28384 10.88 9.62384 8.40004 16.2838 8.04004" stroke="#00D1FF" stroke-width="3" stroke-miterlimit="10" stroke-linecap="round" stroke-linejoin="round"/>
</svg>
